<?xml version="1.0" standalone="no"?><!DOCTYPE svg PUBLIC "-//W3C//DTD SVG 1.1//EN" "http://www.w3.org/Graphics/SVG/1.1/DTD/svg11.dtd"><svg t="1561198955906" class="icon" viewBox="0 0 1756 1024" version="1.1" xmlns="http://www.w3.org/2000/svg" p-id="580" xmlns:xlink="http://www.w3.org/1999/xlink" width="342.96875" height="200"><defs><style type="text/css"></style></defs><path d="M809.7857493 998.22838899A286.06280959 286.06280959 0 0 1 702.61457057 930.05300989a347.42048277 347.42048277 0 0 1-91.90001018-161.4387068 372.50955026 372.50955026 0 0 1 49.35857805-302.42485589 328.60424172 328.60424172 0 0 1 190.89072546-133.07812482c115.07920298-29.72445839 190.89016602-137.71351628 211.07028458-227.9777692a376.05406393 376.05406393 0 0 1-59.72135707 190.89016603 308.151684 308.151684 0 0 1-136.3507576 110.98981038c-209.16096875 89.17225687-218.16042967 288.24400575-193.61680109 394.05186694A320.42321829 320.42321829 0 0 0 809.78518986 998.22838899" fill="#1FA5FF" p-id="581"></path><path d="M994.13176855 993.86487838a299.97066057 299.97066057 0 0 1-74.17464693 4.36351061 275.15515168 275.15515168 0 0 1-81.81023092-24.81606834 287.15368738 287.15368738 0 0 1-105.535422-105.26242284 307.60624511 307.60624511 0 0 1-36.81460403-204.25257867 277.0639081 277.0639081 0 0 1 180.25550784-221.70550222c106.35330063-39.2693582 218.16042967-167.16609435 218.16042966-340.60333685a603.21395453 603.21395453 0 0 1 2.99963365 169.89216997 618.48512303 618.48512303 0 0 1-58.35803953 178.89163033 493.04314161 493.04314161 0 0 1-128.16973476 154.076122 207.25277175 207.25277175 0 0 0-81.80967148 153.80312227 230.15952479 230.15952479 0 0 0 54.53996727 175.34655836A208.88908842 208.88908842 0 0 0 995.22264634 993.86487838" fill="#1FA5FF" p-id="582"></path><path d="M1052.21680893 953.23220265a146.98541693 146.98541693 0 0 1-102.2627892-9.54378096 174.52867915 174.52867915 0 0 1-74.17408697-81.81023147 206.4343337 206.4343337 0 0 1-10.90877674-132.80568505A210.52484569 210.52484569 0 0 1 956.22684616 608.81135353a429.77615257 429.77615257 0 0 0 105.535422-124.89710193 494.95189803 494.95189803 0 0 0 67.62938077-185.98121655 631.84753567 631.84753567 0 0 0 1e-8-173.43836136 569.12654496 569.12654496 0 0 1 34.63284845 127.62429586 547.31011028 547.31011028 0 0 1-2.99963367 180.52794756A451.59258726 451.59258726 0 0 1 1080.57850921 620.26500977c-25.08850806 31.90621396-54.54052728 60.2667954-83.44654759 92.17300933a161.9841457 161.9841457 0 0 0-36.26916513 115.07920299A149.44017111 149.44017111 0 0 0 1052.21680893 953.23332151" fill="#1FA5FF" p-id="583"></path><path d="M1057.125199 698.25772842a126.5328592 126.5328592 0 0 1 80.17447364 102.53522836 141.25914823 141.25914823 0 0 1-56.72172284 139.89527129 174.80111889 174.80111889 0 0 0 81.81023146-104.44454422 199.07118945 199.07118945 0 0 0-52.08633195-198.25331082z m-122.98778667-444.50244219s-27.27026363 17.72536382-56.72172286 33.54197123a185.43633707 185.43633707 0 0 1-31.36077506-116.71551967 167.43797466 167.43797466 0 0 1 95.99108161-143.44090325 123.26078527 123.26078527 0 0 1 119.71515329 10.63521818 116.17008076 116.17008076 0 0 0-85.08286427 0 134.44144234 134.44144234 0 0 0-67.62882133 79.62847534 149.44017111 149.44017111 0 0 0 25.08794862 136.35075817" fill="#1FA5FF" p-id="584"></path></svg>